HIERARCHY
ROOT Hips
{
	OFFSET -0.001795 -0.223333 0.028219
	CHANNELS 6 Xposition Yposition Zposition Zrotation Yrotation Xrotation 
	JOINT LeftUpLeg
	{
		OFFSET 0.069520 -0.091406 -0.006815
		CHANNELS 3 Zrotation Yrotation Xrotation
		JOINT LeftLeg
		{
			OFFSET 0.034277 -0.375199 -0.004496
			CHANNELS 3 Zrotation Yrotation Xrotation
			JOINT LeftFoot
			{
				OFFSET -0.013596 -0.397961 -0.043693
				CHANNELS 3 Zrotation Yrotation Xrotation
				JOINT LeftToe
				{
					OFFSET 0.026358 -0.055791 0.119288
					CHANNELS 3 Zrotation Yrotation Xrotation
					End Site
					{
						OFFSET 0.000000 0.000000 0.000000
					}
				}
			}
		}
	}
	JOINT RightUpLeg
	{
		OFFSET -0.067670 -0.090522 -0.004320
		CHANNELS 3 Zrotation Yrotation Xrotation
		JOINT RightLeg
		{
			OFFSET -0.038290 -0.382569 -0.008850
			CHANNELS 3 Zrotation Yrotation Xrotation
			JOINT RightFoot
			{
				OFFSET 0.015774 -0.398415 -0.042312
				CHANNELS 3 Zrotation Yrotation Xrotation
				JOINT RightToe
				{
					OFFSET -0.025372 -0.048144 0.123348
					CHANNELS 3 Zrotation Yrotation Xrotation
					End Site
					{
						OFFSET 0.000000 0.000000 0.000000
					}
				}
			}
		}
	}
	JOINT Spine
	{
		OFFSET -0.002533 0.108963 -0.026696
		CHANNELS 3 Zrotation Yrotation Xrotation
		JOINT Spine1
		{
			OFFSET 0.005487 0.135180 0.001092
			CHANNELS 3 Zrotation Yrotation Xrotation
			JOINT Spine2
			{
				OFFSET 0.001457 0.052922 0.025425
				CHANNELS 3 Zrotation Yrotation Xrotation
				JOINT Neck
				{
					OFFSET -0.002778 0.213870 -0.042857
					CHANNELS 3 Zrotation Yrotation Xrotation
					JOINT Head
					{
						OFFSET 0.005152 0.064970 0.051349
						CHANNELS 3 Zrotation Yrotation Xrotation
						End Site
						{
							OFFSET 0.000000 0.000000 0.000000
						}
					}
				}
				JOINT LeftShoulder
				{
					OFFSET 0.078845 0.121749 -0.034090
					CHANNELS 3 Zrotation Yrotation Xrotation
					JOINT LeftArm
					{
						OFFSET 0.090977 0.030469 -0.008868
						CHANNELS 3 Zrotation Yrotation Xrotation
						JOINT LeftForeArm
						{
							OFFSET 0.259612 -0.012772 -0.027456
							CHANNELS 3 Zrotation Yrotation Xrotation
							JOINT LeftHand
							{
								OFFSET 0.249234 0.008986 -0.001171
								CHANNELS 3 Zrotation Yrotation Xrotation
								End Site
								{
									OFFSET 0.000000 0.000000 0.000000
								}
							}
						}
					}
				}
				JOINT RightShoulder
				{
					OFFSET -0.081759 0.118833 -0.038615
					CHANNELS 3 Zrotation Yrotation Xrotation
					JOINT RightArm
					{
						OFFSET -0.096012 0.032551 -0.009143
						CHANNELS 3 Zrotation Yrotation Xrotation
						JOINT RightForeArm
						{
							OFFSET -0.253742 -0.013329 -0.021401
							CHANNELS 3 Zrotation Yrotation Xrotation
							JOINT RightHand
							{
								OFFSET -0.255298 0.007772 -0.005559
								CHANNELS 3 Zrotation Yrotation Xrotation
								End Site
								{
									OFFSET 0.000000 0.000000 0.000000
								}
							}
						}
					}
				}
			}
		}
	}
}
MOTION
Frames: 10
Frame Time: 0.050000
0.043022 0.938218 0.122864 1.388990 10.896029 -1.023947 1.765503 -0.683284 -8.216408 -0.999815 -0.011830 3.088665 -0.147141 5.724711 12.013780 0.000000 0.000000 0.000000 1.052557 -0.279443 2.306591 2.691246 -0.427633 -4.510240 -21.202746 -38.457325 20.733135 0.000000 0.000000 0.000000 0.786435 -0.152855 3.154782 -2.905990 1.362019 0.648171 4.245897 1.464055 12.043194 1.032293 1.851342 -23.561201 0.000000 0.000000 0.000000 -25.400784 -1.728497 -3.473805 -57.434384 -0.659622 -6.898984 0.399747 -30.309622 0.767839 0.000000 0.000000 0.000000 20.363440 7.354710 4.372000 52.885735 4.892696 -4.233029 4.414426 26.788620 2.251720 0.000000 0.000000 0.000000 
0.042972 0.938276 0.122519 1.477295 10.869036 -1.403032 1.777353 -0.708939 -8.529438 -1.204415 -0.033881 4.378132 -0.072977 5.789901 11.899771 0.000000 0.000000 0.000000 0.878533 -0.350448 2.927190 2.817840 -0.447568 -4.885712 -21.089432 -38.343857 20.668666 0.000000 0.000000 0.000000 0.767575 -0.151664 3.167797 -3.180929 1.509079 0.273737 4.247163 1.570177 12.696107 0.630124 2.136346 -24.169964 0.000000 0.000000 0.000000 -24.728274 -1.341630 -3.599482 -57.677648 -1.032421 -6.855073 -0.296123 -30.032443 0.950228 0.000000 0.000000 0.000000 19.871412 6.749130 4.039712 53.518884 4.937517 -4.282364 5.060972 27.788784 2.534080 0.000000 0.000000 0.000000 
0.042535 0.938022 0.121879 1.547087 10.975905 -1.682906 1.918959 -0.729632 -8.845191 -1.573196 -0.023948 5.393236 -0.070634 5.761237 11.798479 0.000000 0.000000 0.000000 0.893622 -0.399666 3.325878 2.697894 -0.442280 -5.095145 -21.122692 -38.428268 20.622684 0.000000 0.000000 0.000000 0.704538 -0.152718 3.244495 -3.230540 1.538684 0.148937 3.983762 1.852025 13.079424 0.721599 2.139668 -24.112693 0.000000 0.000000 0.000000 -24.038751 -1.445236 -3.530885 -57.520157 -0.871215 -6.953816 -0.674394 -30.601591 1.039986 0.000000 0.000000 0.000000 19.431486 6.250970 3.837733 54.221669 5.032337 -4.294987 5.378028 28.830106 2.770311 0.000000 0.000000 0.000000 
0.042126 0.937473 0.120982 1.667677 10.860169 -1.943854 2.094460 -0.775527 -9.488545 -2.087581 -0.007370 6.977761 0.084140 5.935828 11.666421 0.000000 0.000000 0.000000 0.754482 -0.420404 3.532862 2.734609 -0.443691 -5.027323 -21.025071 -38.443907 20.253734 0.000000 0.000000 0.000000 0.648842 -0.165313 3.539795 -3.506167 1.682668 -0.241579 3.998983 1.854349 13.727529 0.222330 2.433038 -24.425876 0.000000 0.000000 0.000000 -23.700525 -1.387637 -3.472273 -57.297379 -1.490216 -6.708181 -1.276635 -30.445030 1.212369 0.000000 0.000000 0.000000 18.832907 5.845180 3.576075 54.988595 5.302160 -4.230774 5.390959 29.857154 2.926714 0.000000 0.000000 0.000000 
0.041840 0.936935 0.119739 1.694350 10.567149 -1.972025 2.330051 -0.870250 -10.752002 -2.530049 -0.011585 9.153811 0.350685 6.307882 11.627245 0.000000 0.000000 0.000000 0.749371 -0.405154 3.415380 2.683920 -0.435252 -4.935609 -20.845029 -38.331603 19.864661 0.000000 0.000000 0.000000 0.637233 -0.168141 3.604889 -3.656594 1.752813 -0.186783 3.808721 1.941350 13.790414 -0.068906 2.604358 -24.745441 0.000000 0.000000 0.000000 -23.652347 -1.475540 -3.398121 -56.918785 -1.832402 -6.493529 -1.118284 -31.249163 1.199050 0.000000 0.000000 0.000000 18.499353 5.809703 3.519380 55.510668 5.787773 -4.009522 4.700086 30.607614 2.855057 0.000000 0.000000 0.000000 
0.041863 0.936571 0.118605 1.786412 10.054259 -1.870341 2.205987 -0.975291 -11.868857 -2.474527 -0.077457 10.912029 0.690697 6.825247 11.719509 0.000000 0.000000 0.000000 0.602565 -0.347550 2.980125 2.712170 -0.425417 -4.510929 -20.560487 -38.094335 19.352776 0.000000 0.000000 0.000000 0.476386 -0.163297 3.606826 -3.980735 1.910077 -0.431459 3.805691 1.888246 13.948801 -0.543462 2.819943 -24.842328 0.000000 0.000000 0.000000 -23.443205 -2.115414 -2.882237 -56.959930 -2.778309 -6.093857 -0.898796 -31.561512 1.184584 0.000000 0.000000 0.000000 18.302148 6.162413 3.621524 55.900831 6.348883 -3.755663 4.043964 31.455302 2.772077 0.000000 0.000000 0.000000 
0.042218 0.936242 0.118036 1.677022 9.332323 -1.698548 2.524870 -1.026463 -12.795973 -2.805039 -0.048819 12.235968 1.109553 7.442420 11.808414 0.000000 0.000000 0.000000 0.800576 -0.335839 2.846837 2.467012 -0.405242 -4.802161 -20.086081 -37.552081 18.929521 0.000000 0.000000 0.000000 0.480297 -0.158401 3.499005 -4.260853 2.041265 -0.497668 3.731821 2.287912 13.889801 -0.569033 2.862561 -25.311033 0.000000 0.000000 0.000000 -23.313465 -2.495023 -2.656061 -56.941227 -3.686528 -5.645914 -0.414999 -32.171734 1.061454 0.000000 0.000000 0.000000 17.947492 6.191284 3.611735 56.360584 7.122280 -3.369987 3.643821 31.614639 2.692007 0.000000 0.000000 0.000000 
0.043032 0.935931 0.118411 1.589899 8.553049 -1.804569 2.531399 -1.039636 -13.057144 -2.676724 -0.086348 13.094612 1.544613 8.031966 11.760012 0.000000 0.000000 0.000000 0.969856 -0.349819 2.934207 2.181278 -0.376438 -4.807891 -19.583241 -36.997644 18.407447 0.000000 0.000000 0.000000 0.469316 -0.165141 3.651289 -4.504965 2.160517 -0.895965 3.729195 2.601947 14.288867 -0.198249 2.691938 -25.861365 0.000000 0.000000 0.000000 -22.999665 -3.350923 -2.079416 -56.903602 -4.781275 -5.171869 0.146260 -32.818270 0.935318 0.000000 0.000000 0.000000 17.605366 6.607943 3.799519 56.494140 8.391501 -2.786450 3.319052 31.983893 2.643577 0.000000 0.000000 0.000000 
0.044756 0.935623 0.120036 1.215531 7.972790 -1.862829 2.820901 -0.992374 -12.894932 -2.592115 -0.091941 13.176990 1.888309 8.414121 11.425642 0.000000 0.000000 0.000000 1.420742 -0.417229 3.371369 1.874374 -0.365605 -5.436867 -19.150017 -36.432456 18.215699 0.000000 0.000000 0.000000 0.504982 -0.161287 3.546120 -4.605704 2.207870 -1.043463 3.734950 2.883643 14.557433 0.146778 2.546105 -26.405083 0.000000 0.000000 0.000000 -22.906889 -3.817071 -1.791535 -56.967685 -5.782789 -4.727442 0.331329 -33.782475 0.911779 0.000000 0.000000 0.000000 17.476232 7.328659 4.184642 56.620636 9.524344 -2.266187 2.933901 32.272225 2.566103 0.000000 0.000000 0.000000 
0.047879 0.935436 0.123127 1.143682 6.945305 -1.459278 2.635368 -0.982046 -12.701279 -2.340347 -0.100033 12.699212 2.466599 9.150050 11.137366 0.000000 0.000000 0.000000 1.201698 -0.380298 3.136520 2.007504 -0.372655 -5.526173 -18.497900 -35.639016 17.620608 0.000000 0.000000 0.000000 0.433410 -0.138700 3.103730 -4.805109 2.296276 -1.021568 3.665888 3.309024 14.349568 0.695672 2.249511 -26.510437 0.000000 0.000000 0.000000 -22.549948 -4.150312 -1.515147 -57.364281 -6.216741 -4.551856 0.694713 -34.803214 0.831883 0.000000 0.000000 0.000000 17.346695 8.103566 4.553046 56.641528 10.271516 -1.870742 2.875110 33.252478 2.635988 0.000000 0.000000 0.000000 
